<svg width="153" height="67" viewBox="0 0 153 67" fill="none" xmlns="http://www.w3.org/2000/svg">
<path d="M1 63.4139C3.48577 56.5275 10.9307 44.7586 21.4386 44.7586C34.2817 44.7586 32.2793 58.0246 43.4653 61.8938C54.1189 65.5789 67.2182 55.4681 67.2182 46.7623C67.2182 35.6382 52.2345 34.74 50.5083 44.7586C49.1562 52.6057 53.1607 67.8325 71.5683 65.6249C90.0041 63.4139 90.4606 40.7267 111 34.8413" stroke="url(#paint0_linear_2301_358)" stroke-dasharray="2 2"/>
<path d="M129.747 46.6756L152.303 14.4046C153.062 13.3198 152.309 11.827 150.986 11.7913L108.35 10.6409C107.038 10.6055 106.204 12.0331 106.88 13.158L126.96 46.5794C127.58 47.6111 129.057 47.6621 129.747 46.6756Z" fill="#5C832F"/>
<path d="M110.586 35.628L119.348 33.9648L117.744 31.2712L110.586 35.628Z" fill="#32530C"/>
<path d="M114.212 25.5025L145.963 16.0304L117.744 31.2707L110.586 35.6275C109.779 35.6265 109.876 35.0877 110.026 34.8184L114.212 25.5025Z" fill="#497419"/>
<defs>
<linearGradient id="paint0_linear_2301_358" x1="0.999998" y1="65.6266" x2="116.897" y2="49.1881" gradientUnits="userSpaceOnUse">
<stop stop-color="#A3A3A3"/>
<stop offset="1" stop-color="#5C832F"/>
</linearGradient>
</defs>
</svg>
