<?xml version="1.0" encoding="UTF-8"?><!DOCTYPE svg PUBLIC "-//W3C//DTD SVG 1.1//EN" "http://www.w3.org/Graphics/SVG/1.1/DTD/svg11.dtd"><svg xmlns="http://www.w3.org/2000/svg"><defs><clipPath id="a"><path d="M0 0h16v16H0z"/></clipPath><clipPath id="a"><path transform="translate(.5)" d="M0 0h16v16H0z"/></clipPath></defs><symbol id="arrow-right" viewBox="0 0 20 21"><path d="M4.167 10.5h11.666M10 4.667l5.833 5.833L10 16.333" stroke="#5C832F" stroke-width="1.5" stroke-linecap="round" stroke-linejoin="round"/></symbol><symbol id="chevron-down" viewBox="0 0 24 24"><path d="M6 15l6-6 6 6" stroke="#E8E8E8" stroke-width="2" stroke-linecap="round" stroke-linejoin="round"/></symbol><symbol id="clock" viewBox="0 0 16 16"><g clip-path="url(#a)" stroke="#A3A3A3" stroke-width="1.5" stroke-linecap="round" stroke-linejoin="round"><path d="M8 14.667A6.667 6.667 0 1 0 8 1.333a6.667 6.667 0 0 0 0 13.334z"/><path d="M8 4v4l2.667 1.333"/></g></symbol><symbol id="close" viewBox="0 0 24 24"><path d="M18 6L6 18M6 6l12 12"/></symbol><symbol id="facebook" viewBox="0 0 24 24"><path d="M23 12.5C23 6.701 18.299 2 12.5 2S2 6.701 2 12.5c0 5.241 3.84 9.585 8.86 10.373v-7.338H8.192V12.5h2.666v-2.313c0-2.632 1.568-4.085 3.966-4.085 1.15 0 2.35.205 2.35.205V8.89h-1.323c-1.305 0-1.711.81-1.711 1.64v1.97h2.912l-.466 3.034h-2.446v7.338C19.16 22.085 23 17.74 23 12.5z"/></symbol><symbol id="facebook2" viewBox="0 0 24 24"><path d="M18 2h-3a5 5 0 0 0-5 5v3H7v4h3v8h4v-8h3l1-4h-4V7a1 1 0 0 1 1-1h3V2z"/></symbol><symbol id="instagram" viewBox="0 0 24 24"><path d="M17 2H7a5 5 0 0 0-5 5v10a5 5 0 0 0 5 5h10a5 5 0 0 0 5-5V7a5 5 0 0 0-5-5z"/><path d="M16 11.37a4 4 0 1 1-7.914 1.173A4 4 0 0 1 16 11.37zM17.5 6.5h.01"/></symbol><symbol id="link" viewBox="0 0 24 24"><path d="M10 13a5 5 0 0 0 7.54.54l3-3a5 5 0 0 0-7.07-7.07l-1.72 1.71" stroke="#4D4D4D" stroke-width="2" stroke-linecap="round" stroke-linejoin="round"/><path d="M14 11a5.001 5.001 0 0 0-7.54-.54l-3 3a5 5 0 0 0 7.07 7.07l1.71-1.71" stroke="#4D4D4D" stroke-width="2" stroke-linecap="round" stroke-linejoin="round"/></symbol><symbol id="mail" viewBox="0 0 20 20"><path d="M3.333 3.333h13.334c.916 0 1.666.75 1.666 1.667v10c0 .917-.75 1.667-1.666 1.667H3.333c-.916 0-1.666-.75-1.666-1.667V5c0-.917.75-1.667 1.666-1.667z"/><path d="M18.333 5L10 10.833 1.667 5"/></symbol><symbol id="menu" viewBox="0 0 24 24"><path d="M5 7a2 2 0 1 0 0-4 2 2 0 0 0 0 4zM12 7a2 2 0 1 0 0-4 2 2 0 0 0 0 4zM19 7a2 2 0 1 0 0-4 2 2 0 0 0 0 4zM5 14a2 2 0 1 0 0-4 2 2 0 0 0 0 4zM12 14a2 2 0 1 0 0-4 2 2 0 0 0 0 4zM19 14a2 2 0 1 0 0-4 2 2 0 0 0 0 4zM5 21a2 2 0 1 0 0-4 2 2 0 0 0 0 4zM12 21a2 2 0 1 0 0-4 2 2 0 0 0 0 4zM19 21a2 2 0 1 0 0-4 2 2 0 0 0 0 4z"/></symbol><symbol id="refresh" viewBox="0 0 17 16"><g clip-path="url(#a)" stroke="#5C832F" stroke-width="1.5" stroke-linecap="round" stroke-linejoin="round"><path d="M15.833 2.667v4h-4M1.167 13.333v-4h4"/><path d="M2.84 6a6 6 0 0 1 9.9-2.24l3.093 2.907M1.167 9.333L4.26 12.24a6 6 0 0 0 9.9-2.24"/></g></symbol><symbol id="search" viewBox="0 0 21 20"><path d="M9.25 15.833a7.083 7.083 0 1 0 0-14.166 7.083 7.083 0 0 0 0 14.166zM14.343 13.842l3.535 3.536"/></symbol><symbol id="tictoc" viewBox="0 0 24 24"><path d="M19.162 5.41A5.275 5.275 0 0 1 16.789 1h-3.746l-.006 15.158c-.063 1.697-1.447 3.06-3.142 3.06a3.103 3.103 0 0 1-1.461-.366 3.184 3.184 0 0 1-1.688-2.813c0-1.754 1.412-3.18 3.148-3.18.324 0 .635.054.93.147V9.145a6.793 6.793 0 0 0-.93-.068C6.093 9.077 3 12.2 3 16.039a6.976 6.976 0 0 0 2.943 5.7A6.807 6.807 0 0 0 9.895 23c3.801 0 6.894-3.123 6.894-6.961V8.352A8.852 8.852 0 0 0 22 10.044V6.262a5.145 5.145 0 0 1-2.838-.852z"/></symbol><symbol id="twitter" viewBox="0 0 24 24"><path d="M17.53 2h3.205l-7 8.489L22 22h-6.494l-5.06-6.978L4.626 22H1.423l7.506-9.067L1 2h6.663l4.596 6.4L17.53 2zm-1.138 17.956h1.77L6.693 3.91H4.754l11.639 16.045z"/></symbol><symbol id="user" viewBox="0 0 20 20"><path d="M16.667 17.5v-1.667a3.333 3.333 0 0 0-3.334-3.333H6.667a3.333 3.333 0 0 0-3.334 3.333V17.5M10 9.167A3.333 3.333 0 1 0 10 2.5a3.333 3.333 0 0 0 0 6.667z"/></symbol><symbol id="whatsapp" viewBox="0 0 24 24"><path fill-rule="evenodd" clip-rule="evenodd" d="M19.086 4.904A9.92 9.92 0 0 0 12.042 2c-5.49 0-9.957 4.442-9.958 9.902a9.84 9.84 0 0 0 1.329 4.951L2 21.985l5.28-1.377a9.988 9.988 0 0 0 4.758 1.206h.004c5.488 0 9.956-4.443 9.958-9.903a9.815 9.815 0 0 0-2.914-7.006zm-7.044 15.237h-.003a8.302 8.302 0 0 1-4.213-1.147l-.302-.179-3.133.817.836-3.037-.197-.312a8.176 8.176 0 0 1-1.265-4.38c.002-4.538 3.715-8.23 8.28-8.23 2.211 0 4.29.857 5.852 2.414a8.157 8.157 0 0 1 2.422 5.823c-.002 4.538-3.715 8.23-8.277 8.23v.001zm4.54-6.164c-.249-.124-1.472-.723-1.7-.805-.229-.083-.394-.124-.56.124-.166.248-.643.805-.788.97-.145.165-.29.185-.539.062-.249-.124-1.05-.386-2.001-1.228-.74-.657-1.24-1.467-1.384-1.715-.145-.248-.016-.381.109-.504.111-.111.248-.29.373-.434.125-.144.166-.248.249-.413.083-.165.041-.31-.02-.433-.063-.124-.56-1.342-.768-1.837-.202-.483-.407-.417-.56-.425-.145-.007-.31-.009-.477-.009a.916.916 0 0 0-.663.31c-.229.248-.871.846-.871 2.064 0 1.217.891 2.395 1.016 2.56.124.165 1.754 2.664 4.25 3.736.594.255 1.057.408 1.419.522.596.188 1.138.162 1.567.098.478-.071 1.472-.599 1.68-1.177.207-.577.207-1.073.144-1.176-.062-.103-.228-.165-.477-.29z"/></symbol></svg>