<svg width="24" height="24" viewBox="0 0 24 24" fill="none" xmlns="http://www.w3.org/2000/svg">
<path d="M23 12.5001C23 6.70112 18.299 2.00011 12.5 2.00011C6.70101 2.00011 2 6.70112 2 12.5001C2 17.741 5.8397 22.0848 10.8594 22.8726V15.5353H8.19336V12.5001H10.8594V10.1868C10.8594 7.55527 12.427 6.10168 14.8254 6.10168C15.9742 6.10168 17.1758 6.30676 17.1758 6.30676V8.89074H15.8518C14.5474 8.89074 14.1406 9.70012 14.1406 10.5305V12.5001H17.0527L16.5872 15.5353H14.1406V22.8726C19.1603 22.0848 23 17.741 23 12.5001Z" fill="#4D4D4D"/>
<defs>
<clipPath id="clip0_385_65">
<rect width="21" height="21" fill="white" transform="translate(2 2)"/>
</clipPath>
</defs>
</svg>
