<svg width="17" height="16" viewBox="0 0 17 16" fill="none" xmlns="http://www.w3.org/2000/svg">
<g clip-path="url(#clip0_358_1685)">
<path d="M15.8333 2.66675V6.66675H11.8333" stroke="#5C832F" stroke-width="1.5" stroke-linecap="round" stroke-linejoin="round"/>
<path d="M1.16675 13.3333V9.33325H5.16675" stroke="#5C832F" stroke-width="1.5" stroke-linecap="round" stroke-linejoin="round"/>
<path d="M2.84008 5.99989C3.17819 5.04441 3.75284 4.19016 4.51039 3.51683C5.26795 2.84351 6.18373 2.37306 7.17227 2.14939C8.16082 1.92572 9.18992 1.95612 10.1635 2.23774C11.1372 2.51936 12.0236 3.04303 12.7401 3.75989L15.8334 6.66655M1.16675 9.33322L4.26008 12.2399C4.97658 12.9567 5.863 13.4804 6.83662 13.762C7.81025 14.0437 8.83934 14.0741 9.82789 13.8504C10.8164 13.6267 11.7322 13.1563 12.4898 12.4829C13.2473 11.8096 13.822 10.9554 14.1601 9.99989" stroke="#5C832F" stroke-width="1.5" stroke-linecap="round" stroke-linejoin="round"/>
</g>
<defs>
<clipPath id="clip0_358_1685">
<rect width="16" height="16" fill="white" transform="translate(0.5)"/>
</clipPath>
</defs>
</svg>
