<svg width="24" height="24" viewBox="0 0 24 24" fill="none" xmlns="http://www.w3.org/2000/svg">
<path d="M19.162 5.40971C17.9882 4.63714 17.1417 3.40048 16.8772 1.95964C16.8203 1.64841 16.7886 1.32779 16.7886 1H13.0429L13.0369 16.1578C12.9741 17.8552 11.5904 19.2177 9.89458 19.2177C9.36722 19.2177 8.871 19.0847 8.4338 18.8524C7.43153 18.3199 6.74568 17.2593 6.74568 16.0386C6.74568 14.2854 8.15837 12.8589 9.89404 12.8589C10.2181 12.8589 10.5291 12.913 10.8231 13.0057V9.14453C10.5187 9.10259 10.2094 9.07665 9.89404 9.07665C6.09262 9.07665 3 12.1995 3 16.0386C3 18.3938 4.16513 20.4781 5.94342 21.7385C7.06319 22.5326 8.4256 23 9.89458 23C13.696 23 16.7886 19.8772 16.7886 16.0386V8.3521C18.2576 9.41658 20.0578 10.044 22 10.044V6.26174C20.954 6.26174 19.9796 5.94775 19.162 5.40971Z"/>
<defs>
<clipPath id="clip0_385_57">
<rect width="19" height="22" fill="white" transform="translate(3 1)"/>
</clipPath>
</defs>
</svg>
