<svg width="268" height="46" viewBox="0 0 268 46" fill="none" xmlns="http://www.w3.org/2000/svg">
<path d="M56.7126 0.468506H1.2282C0.549095 0.468506 0 1.01757 0 1.69671V43.5992C0 44.2783 0.549066 44.8274 1.2282 44.8274H56.7126C57.3917 44.8274 57.9408 44.2784 57.9408 43.5992V1.69671C57.9408 1.0176 57.3917 0.468506 56.7126 0.468506ZM55.4843 33.2272H47.3526V12.0677H55.4843V33.2272ZM27.7422 28.2163C25.1934 27.647 23.2803 25.3669 23.2803 22.6477C23.2803 19.9284 25.1934 17.6483 27.7422 17.079V28.2163ZM30.1985 17.0706C32.7676 17.6283 34.695 19.9171 34.695 22.648C34.695 25.3788 32.7675 27.6676 30.1985 28.2253V17.0706ZM2.45633 12.0684H10.6258V33.2301L2.45633 33.2272V12.0684ZM2.45633 35.684H11.8539C12.533 35.684 13.0821 35.1349 13.0821 34.4558V29.1183C16.2349 28.6617 18.6652 25.9424 18.6652 22.6653C18.6652 19.3883 16.2349 16.669 13.0821 16.2124V10.8402C13.0821 10.1611 12.533 9.61203 11.8539 9.61203H2.45633V2.92498H27.7424V14.5797C23.8296 15.1807 20.8242 18.5705 20.8242 22.6478C20.8242 26.7252 23.8296 30.1153 27.7424 30.716V42.3707H2.45633V35.684ZM13.082 18.7124C14.8737 19.1372 16.2088 20.7497 16.2088 22.6686C16.2088 24.5875 14.8737 26.1999 13.082 26.6248V18.7124ZM30.1985 42.3709V30.7222C34.1286 30.1356 37.1514 26.7372 37.1514 22.6481C37.1514 18.5591 34.1286 15.1607 30.1985 14.574V2.92528H55.4846V9.61233H46.1247C45.4456 9.61233 44.8965 10.1614 44.8965 10.8405V16.2127C41.7438 16.6693 39.3134 19.3886 39.3134 22.6656C39.3134 25.9427 41.7438 28.662 44.8965 29.1186V34.4561C44.8965 35.1352 45.4456 35.6843 46.1247 35.6843H55.4846V42.3713L30.1985 42.3709ZM44.8959 26.6215C43.1042 26.1967 41.7691 24.5842 41.7691 22.6653C41.7691 20.7465 43.1042 19.1369 44.8959 18.7121V26.6215Z" fill="#5C832F"/>
<path d="M78.1528 15.2207C78.1528 15.2207 80.0565 14.7943 80.0565 12.9649C80.0565 11.205 78.5791 9.72266 75.4757 9.72266H70.3346C70.052 9.72266 69.8389 9.93583 69.8389 10.2184V19.0975C69.8389 19.3751 70.052 19.5883 70.3346 19.5883H72.4466C72.7292 19.5883 72.9423 19.3751 72.9423 19.0975V16.2072H74.7717C75.5451 16.2072 75.8128 16.4898 76.0408 16.9112L77.2406 19.0975C77.3943 19.3751 77.5926 19.5883 78.1528 19.5883H80.3391C80.6911 19.5883 80.8051 19.3057 80.6911 19.0975L79.4913 16.9112C78.7874 15.6421 78.1528 15.3595 78.1528 15.3595V15.2207ZM72.9423 13.9515V11.9784H75.4757C76.3928 11.9784 76.8142 12.3998 76.8142 12.9649C76.8142 13.5301 76.3928 13.9515 75.4757 13.9515H72.9423Z" fill="white"/>
<path d="M91.5833 10.2184C91.5833 9.93583 91.3751 9.72266 91.0925 9.72266H82.496C82.2134 9.72266 82.0002 9.93583 82.0002 10.2184V19.0975C82.0002 19.3751 82.2134 19.5883 82.496 19.5883H91.0925C91.3751 19.5883 91.5833 19.3751 91.5833 19.0975V17.6846C91.5833 17.402 91.3751 17.1938 91.0925 17.1938H85.1037V15.7809H89.5408C89.8234 15.7809 90.0365 15.5726 90.0365 15.2901V13.8821C90.0365 13.5995 89.8234 13.3863 89.5408 13.3863H85.1037V12.1172H91.0925C91.3751 12.1172 91.5833 11.909 91.5833 11.6264V10.2184Z" fill="white"/>
<path d="M95.3608 10.2184C95.2517 9.93583 95.0088 9.72266 94.7262 9.72266H92.4754C92.1928 9.72266 91.9945 9.93583 92.1185 10.2184L95.9259 19.0975C96.0548 19.3751 96.2779 19.5883 96.5605 19.5883L99.4508 19.5734C99.7334 19.5734 99.9565 19.3751 100.085 19.0975L103.888 10.2184C104.017 9.93583 103.818 9.72266 103.536 9.72266H101.141C100.859 9.72266 100.621 9.93583 100.507 10.2184L98.0379 16.6286H97.8991L95.3608 10.2184Z" fill="white"/>
<path d="M111.19 10.2184C111.19 9.93583 110.977 9.72266 110.695 9.72266H104.919C104.637 9.72266 104.423 9.93583 104.423 10.2184V11.6264C104.423 11.909 104.637 12.1172 104.919 12.1172H106.258V17.1938H104.919C104.637 17.1938 104.423 17.402 104.423 17.6846V19.0975C104.423 19.3751 104.637 19.5883 104.919 19.5883H110.695C110.977 19.5883 111.19 19.3751 111.19 19.0975V17.6846C111.19 17.402 110.977 17.1938 110.695 17.1938H109.356V12.1172H110.695C110.977 12.1172 111.19 11.909 111.19 11.6264V10.2184Z" fill="white"/>
<path d="M115.628 12.6128C115.628 12.1914 116.049 11.7651 117.318 11.7651C118.374 11.7651 118.815 12.1914 118.939 12.3996C119.138 12.7516 119.361 12.9648 119.787 12.9648H121.547C121.899 12.9648 122.112 12.7516 122.112 12.3996C122.112 10.9917 120.56 9.43994 117.318 9.43994C113.868 9.43994 112.385 10.9223 112.385 12.6128C112.385 16.5591 119.222 15.2205 119.222 16.6285C119.222 17.0499 118.726 17.5456 117.318 17.5456C115.91 17.5456 115.489 17.1243 115.276 16.7673C115.077 16.4302 114.854 16.2071 114.428 16.2071H112.668C112.316 16.2071 112.103 16.4153 112.103 16.7673C112.103 18.319 113.655 19.8708 117.318 19.8708C120.912 19.8708 122.464 18.319 122.464 16.6285C122.464 12.6822 115.628 14.0208 115.628 12.6128Z" fill="white"/>
<path d="M132.821 10.2184C132.821 9.93583 132.607 9.72266 132.33 9.72266H123.307C123.024 9.72266 122.816 9.93583 122.816 10.2184V11.6264C122.816 11.909 123.024 12.1172 123.307 12.1172H126.267V19.0975C126.267 19.3751 126.48 19.5883 126.762 19.5883H128.874C129.157 19.5883 129.37 19.3751 129.37 19.0975V12.1172H132.33C132.607 12.1172 132.821 11.909 132.821 11.6264V10.2184Z" fill="white"/>
<path d="M140.897 19.0975C141.011 19.3751 141.249 19.5883 141.531 19.5883H143.926C144.208 19.5883 144.407 19.3751 144.278 19.0975L140.332 10.2035C140.208 9.92096 139.98 9.72266 139.697 9.72266H136.812C136.529 9.72266 136.301 9.93583 136.177 10.2184L132.231 19.0975C132.102 19.3751 132.3 19.5883 132.583 19.5883H134.839C135.116 19.5883 135.359 19.3751 135.473 19.0975L135.964 17.8284H140.401L140.897 19.0975ZM138.15 12.6824H138.289L139.414 15.5032H136.951L138.15 12.6824Z" fill="white"/>
<path d="M157.371 19.5883C157.792 19.5883 158.06 19.3057 158.144 19.0975L160.033 14.4423H160.177V19.0975C160.177 19.3751 160.385 19.5883 160.668 19.5883H162.785C163.067 19.5883 163.275 19.3751 163.275 19.0975V10.2184C163.275 9.93583 163.067 9.72266 162.785 9.72266H159.825C159.399 9.72266 159.131 10.0052 159.047 10.2184L156.583 16.2072H156.439L153.975 10.2184C153.891 10.0052 153.623 9.72266 153.202 9.72266H150.242C149.959 9.72266 149.746 9.93583 149.746 10.2184V19.0975C149.746 19.3751 149.959 19.5883 150.242 19.5883H152.354C152.636 19.5883 152.85 19.3751 152.85 19.0975V14.4423H152.988L154.892 19.0975C154.976 19.3057 155.244 19.5883 155.665 19.5883H157.371Z" fill="white"/>
<path d="M174.975 10.2184C174.975 9.93583 174.762 9.72266 174.479 9.72266H165.883C165.6 9.72266 165.392 9.93583 165.392 10.2184V19.0975C165.392 19.3751 165.6 19.5883 165.883 19.5883H174.479C174.762 19.5883 174.975 19.3751 174.975 19.0975V17.6846C174.975 17.402 174.762 17.1938 174.479 17.1938H168.491V15.7809H172.928C173.21 15.7809 173.423 15.5726 173.423 15.2901V13.8821C173.423 13.5995 173.21 13.3863 172.928 13.3863H168.491V12.1172H174.479C174.762 12.1172 174.975 11.909 174.975 11.6264V10.2184Z" fill="white"/>
<path d="M182.724 10.2184C182.724 9.93583 182.511 9.72266 182.233 9.72266H176.452C176.17 9.72266 175.962 9.93583 175.962 10.2184V11.6264C175.962 11.909 176.17 12.1172 176.452 12.1172H177.791V17.1938H176.452C176.17 17.1938 175.962 17.402 175.962 17.6846V19.0975C175.962 19.3751 176.17 19.5883 176.452 19.5883H182.233C182.511 19.5883 182.724 19.3751 182.724 19.0975V17.6846C182.724 17.402 182.511 17.1938 182.233 17.1938H180.89V12.1172H182.233C182.511 12.1172 182.724 11.909 182.724 11.6264V10.2184Z" fill="white"/>
<path d="M189.63 17.5456C188.078 17.5456 187.092 16.5591 187.092 14.6554C187.092 12.7516 188.078 11.7651 189.63 11.7651C191.182 11.7651 192.168 12.7516 192.168 14.6554C192.168 16.5591 191.182 17.5456 189.63 17.5456ZM189.63 9.43994C185.897 9.43994 183.849 11.4825 183.849 14.6554C183.849 17.8282 185.897 19.8708 189.63 19.8708C193.363 19.8708 195.406 17.8282 195.406 14.6554C195.406 11.4825 193.363 9.43994 189.63 9.43994Z" fill="white"/>
<path d="M203.65 14.3033C203.65 14.0207 203.442 13.8125 203.159 13.8125H197.101C196.819 13.8125 196.605 14.0207 196.605 14.3033V15.5725C196.605 15.855 196.819 16.0633 197.101 16.0633H203.159C203.442 16.0633 203.65 15.855 203.65 15.5725V14.3033Z" fill="white"/>
<path d="M210.63 9.43994C206.892 9.43994 204.85 11.4825 204.85 14.6554C204.85 17.8282 206.892 19.8708 210.63 19.8708C214.011 19.8708 215.841 18.0365 215.841 16.3459C215.841 15.9939 215.632 15.7807 215.28 15.7807H213.516C213.094 15.7807 212.871 15.9939 212.673 16.3459C212.321 16.9805 211.756 17.5456 210.63 17.5456C209.078 17.5456 208.092 16.5591 208.092 14.6554C208.092 12.7516 209.078 11.7651 210.63 11.7651C211.686 11.7651 212.177 12.2608 212.529 12.826C212.742 13.178 212.955 13.3862 213.377 13.3862H215.137C215.489 13.3862 215.702 13.178 215.702 12.826C215.702 11.2049 213.942 9.43994 210.63 9.43994Z" fill="white"/>
<path d="M225.047 19.0975C225.157 19.3751 225.399 19.5883 225.682 19.5883H228.077C228.359 19.5883 228.552 19.3751 228.429 19.0975L224.482 10.2035C224.353 9.92096 224.13 9.72266 223.848 9.72266H220.957C220.675 9.72266 220.452 9.93583 220.323 10.2184L216.377 19.0975C216.253 19.3751 216.451 19.5883 216.729 19.5883H218.984C219.267 19.5883 219.505 19.3751 219.619 19.0975L220.115 17.8284H224.552L225.047 19.0975ZM222.296 12.6824H222.44L223.565 15.5032H221.101L222.296 12.6824Z" fill="white"/>
<path d="M237.148 19.5883C237.575 19.5883 237.842 19.3057 237.927 19.0975L239.816 14.4423H239.954V19.0975C239.954 19.3751 240.168 19.5883 240.45 19.5883H242.562C242.845 19.5883 243.058 19.3751 243.058 19.0975V10.2184C243.058 9.93583 242.845 9.72266 242.562 9.72266H239.602C239.181 9.72266 238.913 10.0052 238.829 10.2184L236.36 16.2072H236.221L233.752 10.2184C233.668 10.0052 233.4 9.72266 232.979 9.72266H230.019C229.737 9.72266 229.529 9.93583 229.529 10.2184V19.0975C229.529 19.3751 229.737 19.5883 230.019 19.5883H232.131C232.414 19.5883 232.627 19.3751 232.627 19.0975V14.4423H232.766L234.67 19.0975C234.754 19.3057 235.022 19.5883 235.443 19.5883H237.148Z" fill="white"/>
<path d="M255.457 13.3169C255.457 11.2744 253.905 9.72266 250.594 9.72266H245.661C245.383 9.72266 245.17 9.93583 245.17 10.2184V19.0975C245.17 19.3751 245.383 19.5883 245.661 19.5883H247.778C248.06 19.5883 248.269 19.3751 248.269 19.0975V16.9112H250.594C253.905 16.9112 255.457 15.3595 255.457 13.3169ZM248.269 14.6555V11.9784H250.594C251.655 11.9784 252.215 12.5435 252.215 13.3169C252.215 14.0903 251.655 14.6555 250.594 14.6555H248.269Z" fill="white"/>
<path d="M262.224 17.5456C260.673 17.5456 259.686 16.5591 259.686 14.6554C259.686 12.7516 260.673 11.7651 262.224 11.7651C263.771 11.7651 264.758 12.7516 264.758 14.6554C264.758 16.5591 263.771 17.5456 262.224 17.5456ZM262.224 9.43994C258.486 9.43994 256.444 11.4825 256.444 14.6554C256.444 17.8282 258.486 19.8708 262.224 19.8708C265.958 19.8708 268 17.8282 268 14.6554C268 11.4825 265.958 9.43994 262.224 9.43994Z" fill="white"/>
<path d="M73.5125 27.8032C71.4798 27.8032 69.8389 29.4392 69.8389 31.4669C69.8389 33.4896 71.4798 35.1405 73.5125 35.1405C75.5451 35.1405 77.0869 33.4896 77.0869 31.4669C77.0869 29.4392 75.5451 27.8032 73.5125 27.8032ZM73.5125 34.5605C71.8318 34.5605 70.4586 33.1475 70.4586 31.4669C70.4586 29.7764 71.8318 28.3783 73.5125 28.3783C75.1931 28.3783 76.4672 29.7764 76.4672 31.4669C76.4672 33.1475 75.1931 34.5605 73.5125 34.5605Z" fill="white"/>
<path d="M85.4059 27.9221H82.1042C81.9356 27.9221 81.8018 28.056 81.8018 28.2245V34.7141C81.8018 34.8777 81.9356 35.0165 82.1042 35.0165H82.119C82.2876 35.0165 82.4215 34.8777 82.4215 34.7141V31.799C82.4215 31.7197 82.4512 31.6899 82.5504 31.6899H85.0341C85.2027 31.6899 85.3365 31.5561 85.3365 31.3925V31.3726C85.3365 31.2041 85.2027 31.0702 85.0341 31.0702H82.5305C82.4512 31.0702 82.4215 31.0405 82.4215 30.9413V28.6509C82.4215 28.5716 82.4512 28.5418 82.5504 28.5418H85.4059C85.5695 28.5418 85.7084 28.408 85.7084 28.2444V28.2245C85.7084 28.056 85.5695 27.9221 85.4059 27.9221Z" fill="white"/>
<path d="M91.39 27.9221H91.3602C91.1966 27.9221 91.0628 28.056 91.0628 28.2245V31.7395C91.0628 33.43 90.5967 34.5604 89.0401 34.5604C87.4734 34.5604 86.9132 33.43 86.9132 31.7395V28.2245C86.9132 28.056 86.7843 27.9221 86.6207 27.9221H86.591C86.4274 27.9221 86.2886 28.056 86.2886 28.2245V31.7395C86.2886 33.7721 87.0074 35.1404 89.0401 35.1404C91.0628 35.1404 91.6924 33.7721 91.6924 31.7395V28.2245C91.6924 28.056 91.5585 27.9221 91.39 27.9221Z" fill="white"/>
<path d="M96.3872 27.9221H92.5748C92.4112 27.9221 92.2773 28.056 92.2773 28.2245V28.2444C92.2773 28.408 92.4112 28.5418 92.5748 28.5418H94.0621C94.1513 28.5418 94.1712 28.5716 94.1712 28.6707V34.7141C94.1712 34.8777 94.305 35.0165 94.4736 35.0165H94.4934C94.657 35.0165 94.7909 34.8777 94.7909 34.7141V28.6509C94.7909 28.5716 94.8206 28.5418 94.9198 28.5418H96.3872C96.5508 28.5418 96.6896 28.408 96.6896 28.2444V28.2245C96.6896 28.056 96.5508 27.9221 96.3872 27.9221Z" fill="white"/>
<path d="M101.062 34.3819H97.9985C97.9093 34.3819 97.8944 34.3521 97.8944 34.2679V31.799C97.8944 31.7097 97.9192 31.6899 98.0184 31.6899H100.507C100.671 31.6899 100.81 31.5561 100.81 31.3925V31.3726C100.81 31.2041 100.671 31.0702 100.507 31.0702H97.9985C97.9093 31.0702 97.8944 31.0405 97.8944 30.9413V28.6509C97.8944 28.5716 97.9192 28.5418 98.0184 28.5418H100.874C101.043 28.5418 101.176 28.408 101.176 28.2444V28.2245C101.176 28.056 101.043 27.9221 100.874 27.9221H97.5623C97.3987 27.9221 97.2698 28.056 97.2698 28.2245V34.7141C97.2698 34.8777 97.3987 35.0165 97.5623 35.0165H101.062C101.226 35.0165 101.36 34.8777 101.36 34.7141V34.6843C101.36 34.5207 101.226 34.3819 101.062 34.3819Z" fill="white"/>
<path d="M105.658 31.0008C106.074 30.748 106.431 30.3414 106.431 29.7217C106.431 28.4377 105.45 27.9221 104.101 27.9221H102.411C102.247 27.9221 102.108 28.056 102.108 28.2245V34.7141C102.108 34.8777 102.247 35.0165 102.411 35.0165H104.334C105.638 35.0165 106.774 34.2381 106.774 32.964C106.774 32.2055 106.248 31.5858 105.648 31.1941C105.539 31.1297 105.519 31.09 105.658 31.0008ZM105.812 29.7217C105.812 30.624 105.103 30.7579 104.101 30.7579C104.101 30.7579 103.08 30.7579 102.936 30.7579C102.798 30.7579 102.743 30.6835 102.743 30.5447C102.743 30.0489 102.743 28.8442 102.743 28.75C102.743 28.6311 102.788 28.5517 102.956 28.5517C103.12 28.5517 104.151 28.5517 104.151 28.5517C105.133 28.5517 105.812 28.7947 105.812 29.7217ZM104.334 34.3819C104.334 34.3819 103.12 34.3819 102.976 34.3819C102.827 34.3819 102.743 34.3075 102.743 34.1687C102.743 34.0646 102.743 32.2352 102.743 31.6056C102.743 31.4668 102.788 31.3925 102.936 31.3925C103.07 31.3925 104.334 31.3925 104.334 31.3925C105.286 31.3925 106.154 32.032 106.154 32.964C106.154 33.896 105.286 34.3819 104.334 34.3819Z" fill="white"/>
<path d="M110.903 27.803C108.87 27.803 107.229 29.439 107.229 31.4667C107.229 33.4894 108.87 35.1403 110.903 35.1403C112.935 35.1403 114.477 33.4894 114.477 31.4667C114.477 29.439 112.935 27.803 110.903 27.803ZM110.903 34.5602C109.222 34.5602 107.854 33.1473 107.854 31.4667C107.854 29.7761 109.222 28.3781 110.903 28.3781C112.583 28.3781 113.857 29.7761 113.857 31.4667C113.857 33.1473 112.583 34.5602 110.903 34.5602Z" fill="white"/>
<path d="M118.821 34.3819H116.044C115.955 34.3819 115.935 34.3521 115.935 34.2679V28.2245C115.935 28.056 115.801 27.9221 115.638 27.9221H115.608C115.44 27.9221 115.306 28.056 115.306 28.2245V34.7141C115.306 34.8777 115.44 35.0165 115.608 35.0165H118.821C118.989 35.0165 119.123 34.8777 119.123 34.7141V34.6843C119.123 34.5207 118.989 34.3819 118.821 34.3819Z" fill="white"/>
<path d="M126.539 28.1056C126.489 27.9816 126.37 27.9221 126.247 27.9221C126.128 27.9221 126.004 27.9816 125.954 28.1056L123.232 34.5852C123.173 34.7339 123.242 34.9173 123.401 34.9768L123.416 34.9867C123.574 35.0561 123.748 34.9768 123.817 34.8281C123.817 34.8281 124.506 33.1871 124.556 33.0731C124.606 32.9541 124.67 32.9144 124.789 32.9144C124.883 32.9144 127.055 32.9144 127.694 32.9144C127.808 32.9144 127.887 32.9541 127.927 33.0433C127.967 33.1276 128.676 34.8281 128.676 34.8281C128.745 34.9768 128.919 35.0561 129.072 34.9867L129.092 34.9768C129.246 34.9173 129.325 34.7339 129.256 34.5852L126.539 28.1056ZM124.933 32.1559C124.962 32.0915 125.845 29.8556 126.147 29.2061C126.227 29.0376 126.266 29.0376 126.331 29.2061C126.603 29.8556 127.501 32.032 127.545 32.1311C127.595 32.2452 127.575 32.2848 127.441 32.2848C127.312 32.2848 125.597 32.2848 125.052 32.2848C124.943 32.2848 124.903 32.2452 124.933 32.1559Z" fill="white"/>
<path d="M132.816 27.803C130.783 27.803 129.142 29.439 129.142 31.4667C129.142 33.4894 130.783 35.1403 132.816 35.1403C133.728 35.1403 134.546 34.8031 135.166 34.2578C135.196 34.2281 135.265 34.1487 135.265 34.0446C135.265 33.995 135.265 33.653 135.265 33.42C135.265 33.3159 135.196 33.3059 135.136 33.3803C134.611 34.0942 133.778 34.5602 132.816 34.5602C131.135 34.5602 129.762 33.1473 129.762 31.4667C129.762 29.786 131.135 28.388 132.816 28.388C133.778 28.388 134.611 28.8441 135.136 29.553C135.196 29.6323 135.265 29.6224 135.265 29.5034C135.265 29.2704 135.265 28.9432 135.265 28.8837C135.265 28.7846 135.196 28.7003 135.166 28.6805C134.566 28.1649 133.728 27.803 132.816 27.803Z" fill="white"/>
<path d="M139.345 27.803C137.312 27.803 135.671 29.439 135.671 31.4667C135.671 33.4894 137.312 35.1403 139.345 35.1403C141.377 35.1403 142.919 33.4894 142.919 31.4667C142.919 29.439 141.377 27.803 139.345 27.803ZM139.345 34.5602C137.664 34.5602 136.291 33.1473 136.291 31.4667C136.291 29.7761 137.664 28.3781 139.345 28.3781C141.025 28.3781 142.299 29.7761 142.299 31.4667C142.299 33.1473 141.025 34.5602 139.345 34.5602Z" fill="white"/>
<path d="M148.536 27.9221H148.506C148.343 27.9221 148.204 28.056 148.204 28.2245C148.204 28.2245 148.204 33.0433 148.204 33.2962C148.204 33.549 148.159 33.6333 147.991 33.3805C147.817 33.1375 144.317 28.0461 144.317 28.0461C144.233 27.9221 144.074 27.8924 143.93 27.9519C143.821 27.9915 143.747 28.1353 143.747 28.2344V34.7141C143.747 34.8777 143.881 35.0165 144.049 35.0165H144.074C144.243 35.0165 144.376 34.8777 144.376 34.7141C144.376 34.7141 144.376 30.0093 144.376 29.7118C144.376 29.4094 144.466 29.3697 144.619 29.5928C144.768 29.806 148.253 34.8777 148.253 34.8777C148.343 35.0066 148.496 35.0462 148.635 34.9867C148.749 34.9371 148.838 34.8281 148.838 34.7041V28.2245C148.838 28.056 148.699 27.9221 148.536 27.9221Z" fill="white"/>
<path d="M153.534 27.9221H149.721C149.558 27.9221 149.419 28.056 149.419 28.2245V28.2444C149.419 28.408 149.558 28.5418 149.721 28.5418H151.208C151.298 28.5418 151.317 28.5716 151.317 28.6707V34.7141C151.317 34.8777 151.451 35.0165 151.615 35.0165H151.635C151.803 35.0165 151.937 34.8777 151.937 34.7141V28.6509C151.937 28.5716 151.967 28.5418 152.066 28.5418H153.534C153.697 28.5418 153.831 28.408 153.831 28.2444V28.2245C153.831 28.056 153.697 27.9221 153.534 27.9221Z" fill="white"/>
<path d="M158.204 34.3819H155.145C155.056 34.3819 155.036 34.3521 155.036 34.2679V31.799C155.036 31.7097 155.065 31.6899 155.165 31.6899H157.653C157.817 31.6899 157.951 31.5561 157.951 31.3925V31.3726C157.951 31.2041 157.817 31.0702 157.653 31.0702H155.145C155.056 31.0702 155.036 31.0405 155.036 30.9413V28.6509C155.036 28.5716 155.065 28.5418 155.165 28.5418H158.02C158.184 28.5418 158.323 28.408 158.323 28.2444V28.2245C158.323 28.056 158.184 27.9221 158.02 27.9221H154.709C154.54 27.9221 154.416 28.056 154.416 28.2245V34.7141C154.416 34.8777 154.54 35.0165 154.709 35.0165H158.204C158.372 35.0165 158.506 34.8777 158.506 34.7141V34.6843C158.506 34.5207 158.372 34.3819 158.204 34.3819Z" fill="white"/>
<path d="M162.779 27.803C160.752 27.803 159.111 29.439 159.111 31.4667C159.111 33.4894 160.752 35.1403 162.779 35.1403C163.697 35.1403 164.51 34.8031 165.134 34.2578C165.164 34.2281 165.229 34.1487 165.229 34.0446C165.229 33.995 165.229 33.653 165.229 33.42C165.229 33.3159 165.164 33.3059 165.105 33.3803C164.579 34.0942 163.741 34.5602 162.779 34.5602C161.099 34.5602 159.731 33.1473 159.731 31.4667C159.731 29.786 161.099 28.388 162.779 28.388C163.741 28.388 164.579 28.8441 165.105 29.553C165.164 29.6323 165.229 29.6224 165.229 29.5034C165.229 29.2704 165.229 28.9432 165.229 28.8837C165.229 28.7846 165.164 28.7003 165.134 28.6805C164.53 28.1649 163.697 27.803 162.779 27.803Z" fill="white"/>
<path d="M169.77 34.3819H166.706C166.622 34.3819 166.602 34.3521 166.602 34.2679V31.799C166.602 31.7097 166.631 31.6899 166.726 31.6899H169.214C169.378 31.6899 169.517 31.5561 169.517 31.3925V31.3726C169.517 31.2041 169.378 31.0702 169.214 31.0702H166.706C166.622 31.0702 166.602 31.0405 166.602 30.9413V28.6509C166.602 28.5716 166.631 28.5418 166.726 28.5418H169.581C169.75 28.5418 169.884 28.408 169.884 28.2444V28.2245C169.884 28.056 169.75 27.9221 169.581 27.9221H166.27C166.106 27.9221 165.977 28.056 165.977 28.2245V34.7141C165.977 34.8777 166.106 35.0165 166.27 35.0165H169.77C169.933 35.0165 170.067 34.8777 170.067 34.7141V34.6843C170.067 34.5207 169.933 34.3819 169.77 34.3819Z" fill="white"/>
<path d="M177.647 28.1056C177.598 27.9816 177.484 27.9221 177.355 27.9221C177.241 27.9221 177.112 27.9816 177.067 28.1056L174.346 34.5852C174.286 34.7339 174.356 34.9173 174.509 34.9768L174.529 34.9867C174.683 35.0561 174.861 34.9768 174.926 34.8281C174.926 34.8281 175.62 33.1871 175.664 33.0731C175.714 32.9541 175.783 32.9144 175.897 32.9144C175.997 32.9144 178.163 32.9144 178.803 32.9144C178.922 32.9144 179.001 32.9541 179.041 33.0433C179.075 33.1276 179.784 34.8281 179.784 34.8281C179.854 34.9768 180.027 35.0561 180.186 34.9867L180.206 34.9768C180.359 34.9173 180.439 34.7339 180.369 34.5852L177.647 28.1056ZM176.046 32.1559C176.076 32.0915 176.958 29.8556 177.261 29.2061C177.34 29.0376 177.375 29.0376 177.444 29.2061C177.717 29.8556 178.609 32.032 178.659 32.1311C178.708 32.2452 178.689 32.2848 178.555 32.2848C178.426 32.2848 176.705 32.2848 176.16 32.2848C176.056 32.2848 176.016 32.2452 176.046 32.1559Z" fill="white"/>
<path d="M187.503 31.4766C187.503 29.4489 185.946 27.803 183.924 27.803C181.896 27.803 180.255 29.4489 180.255 31.4766C180.255 32.83 180.984 34.0149 182.079 34.6445C182.203 34.7238 182.233 34.7536 182.089 34.8279C181.945 34.9072 181.817 34.9965 181.712 35.0808C181.44 35.3088 181.703 35.7996 182.178 35.4922C182.441 35.3088 182.729 35.1601 183.071 35.1204C183.537 35.0708 183.963 35.2097 184.325 35.4625C184.355 35.4823 184.385 35.5022 184.409 35.522C184.851 35.7947 185.371 35.8988 185.926 35.8393C186.422 35.7947 186.814 35.6063 187.22 35.2989C187.533 35.056 187.25 34.5503 186.764 34.8874C186.501 35.0708 186.199 35.2196 185.857 35.2592C185.55 35.289 185.247 35.2394 184.975 35.1204C184.861 35.0708 184.861 35.0262 184.975 34.9866C186.462 34.5305 187.503 33.1275 187.503 31.4766ZM183.924 34.5602C182.233 34.5602 180.875 33.1572 180.875 31.4766C180.875 29.786 182.233 28.388 183.924 28.388C185.604 28.388 186.878 29.786 186.878 31.4766C186.878 33.1572 185.604 34.5602 183.924 34.5602Z" fill="white"/>
<path d="M193.428 27.9221H193.398C193.234 27.9221 193.101 28.056 193.101 28.2245V31.7395C193.101 33.43 192.635 34.5604 191.078 34.5604C189.511 34.5604 188.951 33.43 188.951 31.7395V28.2245C188.951 28.056 188.822 27.9221 188.659 27.9221H188.629C188.465 27.9221 188.326 28.056 188.326 28.2245V31.7395C188.326 33.7721 189.045 35.1404 191.078 35.1404C193.101 35.1404 193.73 33.7721 193.73 31.7395V28.2245C193.73 28.056 193.596 27.9221 193.428 27.9221Z" fill="white"/>
<path d="M195.024 27.9221H195.004C194.836 27.9221 194.702 28.056 194.702 28.2245V34.7141C194.702 34.8777 194.836 35.0165 195.004 35.0165H195.024C195.188 35.0165 195.321 34.8777 195.321 34.7141V28.2245C195.321 28.056 195.188 27.9221 195.024 27.9221Z" fill="white"/>
<path d="M196.927 33.9456H196.868C196.555 33.9456 196.293 34.1885 196.293 34.5108V34.5604C196.293 34.8777 196.555 35.1404 196.868 35.1404H196.927C197.23 35.1404 197.492 34.8777 197.492 34.5604V34.5108C197.492 34.1885 197.23 33.9456 196.927 33.9456ZM196.907 27.9221H196.888C196.724 27.9221 196.585 28.056 196.585 28.2245L196.565 33.083C196.565 33.2466 196.704 33.3904 196.868 33.3904H196.927C197.091 33.3904 197.23 33.2466 197.23 33.083L197.21 28.2245C197.21 28.056 197.071 27.9221 196.907 27.9221Z" fill="white"/>
</svg>
