<svg width="213" height="36" viewBox="0 0 213 36" fill="none" xmlns="http://www.w3.org/2000/svg">
<path d="M45.0738 0.372314H0.976145C0.436408 0.372314 0 0.808699 0 1.34846V34.6516C0 35.1913 0.436384 35.6277 0.976145 35.6277H45.0738C45.6135 35.6277 46.0499 35.1913 46.0499 34.6516V1.34846C46.0499 0.808722 45.6135 0.372314 45.0738 0.372314ZM44.0976 26.4081H37.6347V9.59107H44.0976V26.4081ZM22.0488 22.4256C20.0231 21.9731 18.5027 20.161 18.5027 17.9998C18.5027 15.8386 20.0231 14.0264 22.0488 13.574V22.4256ZM24.001 13.5673C26.0429 14.0105 27.5748 15.8296 27.5748 18C27.5748 20.1704 26.0428 21.9895 24.001 22.4328V13.5673ZM1.95223 9.5916H8.44517V26.4104L1.95223 26.4081V9.5916ZM1.95223 28.3607H9.4212C9.96093 28.3607 10.3973 27.9243 10.3973 27.3846V23.1425C12.9031 22.7796 14.8347 20.6184 14.8347 18.0138C14.8347 15.4093 12.9031 13.2481 10.3973 12.8852V8.61551C10.3973 8.07578 9.96096 7.63937 9.4212 7.63937H1.95223V2.32466H22.049V11.5875C18.9392 12.0652 16.5505 14.7593 16.5505 17.9999C16.5505 21.2405 18.9392 23.9349 22.049 24.4123V33.6751H1.95223V28.3607ZM10.3972 14.8721C11.8212 15.2098 12.8823 16.4914 12.8823 18.0164C12.8823 19.5415 11.8212 20.823 10.3972 21.1607V14.8721ZM24.001 33.6754V24.4172C27.1246 23.951 29.527 21.25 29.527 18.0001C29.527 14.7503 27.1246 12.0493 24.001 11.583V2.3249H44.0978V7.6396H36.6588C36.1191 7.6396 35.6827 8.07599 35.6827 8.61575V12.8854C33.1769 13.2483 31.2453 15.4095 31.2453 18.0141C31.2453 20.6186 33.1769 22.7798 35.6827 23.1427V27.3848C35.6827 27.9246 36.1191 28.361 36.6588 28.361H44.0978V33.6757L24.001 33.6754ZM35.6822 21.1581C34.2582 20.8205 33.1971 19.5389 33.1971 18.0138C33.1971 16.4888 34.2582 15.2095 35.6822 14.8719V21.1581Z" fill="#5C832F"/>
<path d="M62.1141 12.097C62.1141 12.097 63.6271 11.7581 63.6271 10.3042C63.6271 8.90541 62.4529 7.72729 59.9863 7.72729H55.9004C55.6758 7.72729 55.5063 7.89672 55.5063 8.12131V15.1782C55.5063 15.3989 55.6758 15.5683 55.9004 15.5683H57.5789C57.8035 15.5683 57.9729 15.3989 57.9729 15.1782V12.8811H59.4268C60.0415 12.8811 60.2543 13.1057 60.4355 13.4406L61.3891 15.1782C61.5112 15.3989 61.6688 15.5683 62.1141 15.5683H63.8517C64.1314 15.5683 64.2221 15.3437 64.1314 15.1782L63.1779 13.4406C62.6184 12.4319 62.1141 12.2073 62.1141 12.2073V12.097ZM57.9729 11.0883V9.52008H59.9863C60.7153 9.52008 61.0502 9.855 61.0502 10.3042C61.0502 10.7534 60.7153 11.0883 59.9863 11.0883H57.9729Z" fill="white"/>
<path d="M72.788 8.12131C72.788 7.89672 72.6225 7.72729 72.398 7.72729H65.5657C65.3411 7.72729 65.1716 7.89672 65.1716 8.12131V15.1782C65.1716 15.3989 65.3411 15.5683 65.5657 15.5683H72.398C72.6225 15.5683 72.788 15.3989 72.788 15.1782V14.0553C72.788 13.8307 72.6225 13.6652 72.398 13.6652H67.6382V12.5422H71.1647C71.3893 12.5422 71.5587 12.3767 71.5587 12.1521V11.0331C71.5587 10.8085 71.3893 10.6391 71.1647 10.6391H67.6382V9.63041H72.398C72.6225 9.63041 72.788 9.46492 72.788 9.24033V8.12131Z" fill="white"/>
<path d="M75.7904 8.12131C75.7037 7.89672 75.5107 7.72729 75.2861 7.72729H73.4972C73.2726 7.72729 73.115 7.89672 73.2135 8.12131L76.2396 15.1782C76.342 15.3989 76.5193 15.5683 76.7439 15.5683L79.0411 15.5565C79.2657 15.5565 79.443 15.3989 79.5454 15.1782L82.5676 8.12131C82.67 7.89672 82.5124 7.72729 82.2878 7.72729H80.3847C80.1601 7.72729 79.971 7.89672 79.8803 8.12131L77.9181 13.216H77.8078L75.7904 8.12131Z" fill="white"/>
<path d="M88.3715 8.12131C88.3715 7.89672 88.2021 7.72729 87.9775 7.72729H83.3872C83.1626 7.72729 82.9932 7.89672 82.9932 8.12131V9.24033C82.9932 9.46492 83.1626 9.63041 83.3872 9.63041H84.451V13.6652H83.3872C83.1626 13.6652 82.9932 13.8307 82.9932 14.0553V15.1782C82.9932 15.3989 83.1626 15.5683 83.3872 15.5683H87.9775C88.2021 15.5683 88.3715 15.3989 88.3715 15.1782V14.0553C88.3715 13.8307 88.2021 13.6652 87.9775 13.6652H86.9137V9.63041H87.9775C88.2021 9.63041 88.3715 9.46492 88.3715 9.24033V8.12131Z" fill="white"/>
<path d="M91.8979 10.0244C91.8979 9.68949 92.2328 9.35064 93.2415 9.35064C94.0808 9.35064 94.4315 9.68949 94.53 9.85498C94.6876 10.1347 94.8649 10.3042 95.2037 10.3042H96.6025C96.8823 10.3042 97.0517 10.1347 97.0517 9.85498C97.0517 8.73597 95.8184 7.50269 93.2415 7.50269C90.4991 7.50269 89.321 8.6808 89.321 10.0244C89.321 13.1608 94.7546 12.097 94.7546 13.216C94.7546 13.5509 94.3605 13.9449 93.2415 13.9449C92.1225 13.9449 91.7876 13.61 91.6182 13.3263C91.4606 13.0584 91.2832 12.8811 90.9444 12.8811H89.5456C89.2659 12.8811 89.0964 13.0465 89.0964 13.3263C89.0964 14.5596 90.3297 15.7929 93.2415 15.7929C96.0982 15.7929 97.3314 14.5596 97.3314 13.216C97.3314 10.0796 91.8979 11.1434 91.8979 10.0244Z" fill="white"/>
<path d="M105.563 8.12131C105.563 7.89672 105.393 7.72729 105.173 7.72729H98.0014C97.7768 7.72729 97.6113 7.89672 97.6113 8.12131V9.24033C97.6113 9.46492 97.7768 9.63041 98.0014 9.63041H100.354V15.1782C100.354 15.3989 100.523 15.5683 100.748 15.5683H102.426C102.651 15.5683 102.82 15.3989 102.82 15.1782V9.63041H105.173C105.393 9.63041 105.563 9.46492 105.563 9.24033V8.12131Z" fill="white"/>
<path d="M111.981 15.1782C112.072 15.3989 112.261 15.5683 112.486 15.5683H114.389C114.613 15.5683 114.771 15.3989 114.668 15.1782L111.532 8.10949C111.433 7.8849 111.252 7.72729 111.028 7.72729H108.734C108.51 7.72729 108.329 7.89672 108.23 8.12131L105.094 15.1782C104.991 15.3989 105.149 15.5683 105.373 15.5683H107.166C107.387 15.5683 107.58 15.3989 107.671 15.1782L108.061 14.1695H111.587L111.981 15.1782ZM109.798 10.0796H109.909L110.803 12.3216H108.845L109.798 10.0796Z" fill="white"/>
<path d="M125.074 15.5683C125.409 15.5683 125.622 15.3437 125.689 15.1782L127.19 11.4784H127.305V15.1782C127.305 15.3989 127.47 15.5683 127.695 15.5683H129.377C129.602 15.5683 129.767 15.3989 129.767 15.1782V8.12131C129.767 7.89672 129.602 7.72729 129.377 7.72729H127.025C126.686 7.72729 126.473 7.95189 126.406 8.12131L124.448 12.8811H124.334L122.375 8.12131C122.308 7.95189 122.096 7.72729 121.761 7.72729H119.408C119.184 7.72729 119.014 7.89672 119.014 8.12131V15.1782C119.014 15.3989 119.184 15.5683 119.408 15.5683H121.087C121.312 15.5683 121.481 15.3989 121.481 15.1782V11.4784H121.591L123.104 15.1782C123.171 15.3437 123.384 15.5683 123.719 15.5683H125.074Z" fill="white"/>
<path d="M139.066 8.12131C139.066 7.89672 138.897 7.72729 138.672 7.72729H131.84C131.615 7.72729 131.45 7.89672 131.45 8.12131V15.1782C131.45 15.3989 131.615 15.5683 131.84 15.5683H138.672C138.897 15.5683 139.066 15.3989 139.066 15.1782V14.0553C139.066 13.8307 138.897 13.6652 138.672 13.6652H133.912V12.5422H137.439C137.663 12.5422 137.833 12.3767 137.833 12.1521V11.0331C137.833 10.8085 137.663 10.6391 137.439 10.6391H133.912V9.63041H138.672C138.897 9.63041 139.066 9.46492 139.066 9.24033V8.12131Z" fill="white"/>
<path d="M145.225 8.12131C145.225 7.89672 145.055 7.72729 144.834 7.72729H140.24C140.016 7.72729 139.85 7.89672 139.85 8.12131V9.24033C139.85 9.46492 140.016 9.63041 140.24 9.63041H141.304V13.6652H140.24C140.016 13.6652 139.85 13.8307 139.85 14.0553V15.1782C139.85 15.3989 140.016 15.5683 140.24 15.5683H144.834C145.055 15.5683 145.225 15.3989 145.225 15.1782V14.0553C145.225 13.8307 145.055 13.6652 144.834 13.6652H143.767V9.63041H144.834C145.055 9.63041 145.225 9.46492 145.225 9.24033V8.12131Z" fill="white"/>
<path d="M150.713 13.9449C149.48 13.9449 148.696 13.1608 148.696 11.6478C148.696 10.1347 149.48 9.35064 150.713 9.35064C151.947 9.35064 152.731 10.1347 152.731 11.6478C152.731 13.1608 151.947 13.9449 150.713 13.9449ZM150.713 7.50269C147.746 7.50269 146.119 9.12605 146.119 11.6478C146.119 14.1695 147.746 15.7929 150.713 15.7929C153.68 15.7929 155.304 14.1695 155.304 11.6478C155.304 9.12605 153.68 7.50269 150.713 7.50269Z" fill="white"/>
<path d="M161.856 11.3681C161.856 11.1435 161.691 10.978 161.466 10.978H156.651C156.427 10.978 156.257 11.1435 156.257 11.3681V12.3768C156.257 12.6014 156.427 12.7669 156.651 12.7669H161.466C161.691 12.7669 161.856 12.6014 161.856 12.3768V11.3681Z" fill="white"/>
<path d="M167.404 7.50269C164.433 7.50269 162.81 9.12605 162.81 11.6478C162.81 14.1695 164.433 15.7929 167.404 15.7929C170.091 15.7929 171.545 14.335 171.545 12.9914C171.545 12.7116 171.38 12.5422 171.1 12.5422H169.697C169.362 12.5422 169.185 12.7116 169.027 12.9914C168.748 13.4957 168.299 13.9449 167.404 13.9449C166.171 13.9449 165.387 13.1608 165.387 11.6478C165.387 10.1347 166.171 9.35064 167.404 9.35064C168.243 9.35064 168.633 9.74466 168.913 10.1938C169.083 10.4736 169.252 10.6391 169.587 10.6391H170.986C171.265 10.6391 171.435 10.4736 171.435 10.1938C171.435 8.9054 170.036 7.50269 167.404 7.50269Z" fill="white"/>
<path d="M178.862 15.1782C178.949 15.3989 179.142 15.5683 179.366 15.5683H181.27C181.494 15.5683 181.648 15.3989 181.549 15.1782L178.413 8.10949C178.31 7.8849 178.133 7.72729 177.909 7.72729H175.611C175.387 7.72729 175.209 7.89672 175.107 8.12131L171.971 15.1782C171.872 15.3989 172.03 15.5683 172.25 15.5683H174.043C174.268 15.5683 174.457 15.3989 174.548 15.1782L174.942 14.1695H178.468L178.862 15.1782ZM176.675 10.0796H176.789L177.684 12.3216H175.726L176.675 10.0796Z" fill="white"/>
<path d="M188.48 15.5683C188.819 15.5683 189.032 15.3437 189.099 15.1782L190.6 11.4784H190.71V15.1782C190.71 15.3989 190.88 15.5683 191.104 15.5683H192.783C193.007 15.5683 193.177 15.3989 193.177 15.1782V8.12131C193.177 7.89672 193.007 7.72729 192.783 7.72729H190.431C190.096 7.72729 189.883 7.95189 189.816 8.12131L187.854 12.8811H187.743L185.781 8.12131C185.714 7.95189 185.501 7.72729 185.166 7.72729H182.814C182.59 7.72729 182.424 7.89672 182.424 8.12131V15.1782C182.424 15.3989 182.59 15.5683 182.814 15.5683H184.493C184.717 15.5683 184.887 15.3989 184.887 15.1782V11.4784H184.997L186.51 15.1782C186.577 15.3437 186.79 15.5683 187.125 15.5683H188.48Z" fill="white"/>
<path d="M203.031 10.5839C203.031 8.96058 201.798 7.72729 199.166 7.72729H195.245C195.025 7.72729 194.855 7.89672 194.855 8.12131V15.1782C194.855 15.3989 195.025 15.5683 195.245 15.5683H196.928C197.152 15.5683 197.318 15.3989 197.318 15.1782V13.4406H199.166C201.798 13.4406 203.031 12.2073 203.031 10.5839ZM197.318 11.6478V9.52008H199.166C200.009 9.52008 200.454 9.96927 200.454 10.5839C200.454 11.1986 200.009 11.6478 199.166 11.6478H197.318Z" fill="white"/>
<path d="M208.41 13.9449C207.176 13.9449 206.392 13.1608 206.392 11.6478C206.392 10.1347 207.176 9.35064 208.41 9.35064C209.639 9.35064 210.423 10.1347 210.423 11.6478C210.423 13.1608 209.639 13.9449 208.41 13.9449ZM208.41 7.50269C205.439 7.50269 203.815 9.12605 203.815 11.6478C203.815 14.1695 205.439 15.7929 208.41 15.7929C211.377 15.7929 213 14.1695 213 11.6478C213 9.12605 211.377 7.50269 208.41 7.50269Z" fill="white"/>
<path d="M58.426 22.0972C56.8106 22.0972 55.5063 23.3974 55.5063 25.009C55.5063 26.6166 56.8106 27.9287 58.426 27.9287C60.0415 27.9287 61.2669 26.6166 61.2669 25.009C61.2669 23.3974 60.0415 22.0972 58.426 22.0972ZM58.426 27.4677C57.0903 27.4677 55.9989 26.3447 55.9989 25.009C55.9989 23.6654 57.0903 22.5542 58.426 22.5542C59.7618 22.5542 60.7744 23.6654 60.7744 25.009C60.7744 26.3447 59.7618 27.4677 58.426 27.4677Z" fill="white"/>
<path d="M67.8787 22.1917H65.2545C65.1205 22.1917 65.0142 22.298 65.0142 22.432V27.5897C65.0142 27.7197 65.1205 27.8301 65.2545 27.8301H65.2663C65.4003 27.8301 65.5067 27.7197 65.5067 27.5897V25.2729C65.5067 25.2098 65.5303 25.1862 65.6091 25.1862H67.5832C67.7171 25.1862 67.8235 25.0798 67.8235 24.9498V24.934C67.8235 24.8001 67.7171 24.6937 67.5832 24.6937H65.5934C65.5303 24.6937 65.5067 24.67 65.5067 24.5912V22.7709C65.5067 22.7078 65.5303 22.6842 65.6091 22.6842H67.8787C68.0087 22.6842 68.119 22.5778 68.119 22.4478V22.432C68.119 22.298 68.0087 22.1917 67.8787 22.1917Z" fill="white"/>
<path d="M72.6343 22.1917H72.6107C72.4806 22.1917 72.3742 22.298 72.3742 22.432V25.2256C72.3742 26.5692 72.0039 27.4676 70.7666 27.4676C69.5215 27.4676 69.0763 26.5692 69.0763 25.2256V22.432C69.0763 22.298 68.9739 22.1917 68.8438 22.1917H68.8202C68.6902 22.1917 68.5798 22.298 68.5798 22.432V25.2256C68.5798 26.8411 69.1512 27.9286 70.7666 27.9286C72.3742 27.9286 72.8746 26.8411 72.8746 25.2256V22.432C72.8746 22.298 72.7683 22.1917 72.6343 22.1917Z" fill="white"/>
<path d="M76.606 22.1917H73.576C73.446 22.1917 73.3396 22.298 73.3396 22.432V22.4478C73.3396 22.5778 73.446 22.6842 73.576 22.6842H74.7581C74.829 22.6842 74.8448 22.7078 74.8448 22.7866V27.5897C74.8448 27.7197 74.9511 27.8301 75.0851 27.8301H75.1009C75.2309 27.8301 75.3373 27.7197 75.3373 27.5897V22.7709C75.3373 22.7078 75.3609 22.6842 75.4397 22.6842H76.606C76.736 22.6842 76.8464 22.5778 76.8464 22.4478V22.432C76.8464 22.298 76.736 22.1917 76.606 22.1917Z" fill="white"/>
<path d="M80.3216 27.3257H77.8866C77.8157 27.3257 77.8038 27.3021 77.8038 27.2351V25.2729C77.8038 25.202 77.8235 25.1862 77.9023 25.1862H79.8803C80.0104 25.1862 80.1207 25.0798 80.1207 24.9498V24.934C80.1207 24.8001 80.0104 24.6937 79.8803 24.6937H77.8866C77.8157 24.6937 77.8038 24.67 77.8038 24.5912V22.7709C77.8038 22.7078 77.8235 22.6842 77.9023 22.6842H80.1719C80.3059 22.6842 80.4122 22.5778 80.4122 22.4478V22.432C80.4122 22.298 80.3059 22.1917 80.1719 22.1917H77.5398C77.4098 22.1917 77.3074 22.298 77.3074 22.432V27.5897C77.3074 27.7197 77.4098 27.8301 77.5398 27.8301H80.3216C80.4517 27.8301 80.558 27.7197 80.558 27.5897V27.5661C80.558 27.4361 80.4517 27.3257 80.3216 27.3257Z" fill="white"/>
<path d="M83.9743 24.6385C84.3052 24.4376 84.5889 24.1145 84.5889 23.6219C84.5889 22.6014 83.8088 22.1917 82.737 22.1917H81.3934C81.2634 22.1917 81.1531 22.298 81.1531 22.432V27.5897C81.1531 27.7197 81.2634 27.8301 81.3934 27.8301H82.9222C83.9585 27.8301 84.8608 27.2115 84.8608 26.1988C84.8608 25.596 84.4431 25.1035 83.9664 24.7922C83.8797 24.741 83.8639 24.7094 83.9743 24.6385ZM84.0964 23.6219C84.0964 24.3391 83.533 24.4454 82.737 24.4454C82.737 24.4454 81.9254 24.4454 81.8111 24.4454C81.7008 24.4454 81.6574 24.3863 81.6574 24.276C81.6574 23.882 81.6574 22.9245 81.6574 22.8497C81.6574 22.7551 81.6929 22.6921 81.8268 22.6921C81.9569 22.6921 82.7764 22.6921 82.7764 22.6921C83.5566 22.6921 84.0964 22.8851 84.0964 23.6219ZM82.9222 27.3257C82.9222 27.3257 81.9569 27.3257 81.8426 27.3257C81.7244 27.3257 81.6574 27.2666 81.6574 27.1563C81.6574 27.0736 81.6574 25.6196 81.6574 25.1192C81.6574 25.0089 81.6929 24.9498 81.8111 24.9498C81.9175 24.9498 82.9222 24.9498 82.9222 24.9498C83.6787 24.9498 84.3683 25.4581 84.3683 26.1988C84.3683 26.9396 83.6787 27.3257 82.9222 27.3257Z" fill="white"/>
<path d="M88.1431 22.0972C86.5276 22.0972 85.2234 23.3974 85.2234 25.009C85.2234 26.6166 86.5276 27.9287 88.1431 27.9287C89.7586 27.9287 90.984 26.6166 90.984 25.009C90.984 23.3974 89.7586 22.0972 88.1431 22.0972ZM88.1431 27.4677C86.8073 27.4677 85.7199 26.3447 85.7199 25.009C85.7199 23.6654 86.8073 22.5542 88.1431 22.5542C89.4788 22.5542 90.4914 23.6654 90.4914 25.009C90.4914 26.3447 89.4788 27.4677 88.1431 27.4677Z" fill="white"/>
<path d="M94.4354 27.3257H92.2289C92.158 27.3257 92.1422 27.3021 92.1422 27.2351V22.432C92.1422 22.298 92.0359 22.1917 91.9058 22.1917H91.8822C91.7482 22.1917 91.6418 22.298 91.6418 22.432V27.5897C91.6418 27.7197 91.7482 27.8301 91.8822 27.8301H94.4354C94.5694 27.8301 94.6758 27.7197 94.6758 27.5897V27.5661C94.6758 27.4361 94.5694 27.3257 94.4354 27.3257Z" fill="white"/>
<path d="M100.57 22.3374C100.531 22.2389 100.436 22.1917 100.338 22.1917C100.243 22.1917 100.145 22.2389 100.105 22.3374L97.9423 27.4873C97.895 27.6055 97.9502 27.7513 98.0763 27.7986L98.0881 27.8064C98.2142 27.8616 98.3521 27.7986 98.4073 27.6803C98.4073 27.6803 98.9549 26.3761 98.9943 26.2855C99.0337 26.191 99.085 26.1594 99.1795 26.1594C99.2544 26.1594 100.98 26.1594 101.488 26.1594C101.579 26.1594 101.642 26.191 101.674 26.2619C101.705 26.3289 102.269 27.6803 102.269 27.6803C102.324 27.7986 102.462 27.8616 102.584 27.8064L102.6 27.7986C102.722 27.7513 102.785 27.6055 102.73 27.4873L100.57 22.3374ZM99.2938 25.5566C99.3174 25.5054 100.019 23.7283 100.259 23.2122C100.322 23.0782 100.354 23.0782 100.405 23.2122C100.622 23.7283 101.335 25.4581 101.37 25.5369C101.41 25.6275 101.394 25.659 101.288 25.659C101.185 25.659 99.8218 25.659 99.3884 25.659C99.3017 25.659 99.2702 25.6275 99.2938 25.5566Z" fill="white"/>
<path d="M105.559 22.0972C103.943 22.0972 102.639 23.3974 102.639 25.009C102.639 26.6166 103.943 27.9287 105.559 27.9287C106.284 27.9287 106.934 27.6607 107.426 27.2273C107.45 27.2037 107.505 27.1406 107.505 27.0579C107.505 27.0185 107.505 26.7466 107.505 26.5614C107.505 26.4787 107.45 26.4708 107.403 26.5299C106.985 27.0973 106.323 27.4677 105.559 27.4677C104.223 27.4677 103.131 26.3447 103.131 25.009C103.131 23.6732 104.223 22.5621 105.559 22.5621C106.323 22.5621 106.985 22.9246 107.403 23.4881C107.45 23.5511 107.505 23.5432 107.505 23.4487C107.505 23.2635 107.505 23.0034 107.505 22.9561C107.505 22.8773 107.45 22.8103 107.426 22.7946C106.949 22.3848 106.284 22.0972 105.559 22.0972Z" fill="white"/>
<path d="M110.748 22.0972C109.132 22.0972 107.828 23.3974 107.828 25.009C107.828 26.6166 109.132 27.9287 110.748 27.9287C112.363 27.9287 113.589 26.6166 113.589 25.009C113.589 23.3974 112.363 22.0972 110.748 22.0972ZM110.748 27.4677C109.412 27.4677 108.321 26.3447 108.321 25.009C108.321 23.6654 109.412 22.5542 110.748 22.5542C112.084 22.5542 113.096 23.6654 113.096 25.009C113.096 26.3447 112.084 27.4677 110.748 27.4677Z" fill="white"/>
<path d="M118.053 22.1917H118.029C117.899 22.1917 117.789 22.298 117.789 22.432C117.789 22.432 117.789 26.2619 117.789 26.4628C117.789 26.6638 117.754 26.7308 117.62 26.5298C117.482 26.3367 114.7 22.2902 114.7 22.2902C114.633 22.1917 114.507 22.168 114.393 22.2153C114.306 22.2468 114.247 22.3611 114.247 22.4399V27.5897C114.247 27.7197 114.353 27.8301 114.487 27.8301H114.507C114.641 27.8301 114.747 27.7197 114.747 27.5897C114.747 27.5897 114.747 23.8505 114.747 23.6141C114.747 23.3737 114.818 23.3422 114.94 23.5195C115.059 23.6889 117.828 27.7197 117.828 27.7197C117.899 27.8222 118.022 27.8537 118.132 27.8064C118.222 27.767 118.293 27.6803 118.293 27.5818V22.432C118.293 22.298 118.183 22.1917 118.053 22.1917Z" fill="white"/>
<path d="M122.025 22.1917H118.995C118.865 22.1917 118.754 22.298 118.754 22.432V22.4478C118.754 22.5778 118.865 22.6842 118.995 22.6842H120.177C120.248 22.6842 120.263 22.7078 120.263 22.7866V27.5897C120.263 27.7197 120.37 27.8301 120.5 27.8301H120.516C120.65 27.8301 120.756 27.7197 120.756 27.5897V22.7709C120.756 22.7078 120.78 22.6842 120.858 22.6842H122.025C122.155 22.6842 122.261 22.5778 122.261 22.4478V22.432C122.261 22.298 122.155 22.1917 122.025 22.1917Z" fill="white"/>
<path d="M125.736 27.3257H123.305C123.234 27.3257 123.219 27.3021 123.219 27.2351V25.2729C123.219 25.202 123.242 25.1862 123.321 25.1862H125.299C125.429 25.1862 125.535 25.0798 125.535 24.9498V24.934C125.535 24.8001 125.429 24.6937 125.299 24.6937H123.305C123.234 24.6937 123.219 24.67 123.219 24.5912V22.7709C123.219 22.7078 123.242 22.6842 123.321 22.6842H125.591C125.721 22.6842 125.831 22.5778 125.831 22.4478V22.432C125.831 22.298 125.721 22.1917 125.591 22.1917H122.959C122.825 22.1917 122.726 22.298 122.726 22.432V27.5897C122.726 27.7197 122.825 27.8301 122.959 27.8301H125.736C125.87 27.8301 125.977 27.7197 125.977 27.5897V27.5661C125.977 27.4361 125.87 27.3257 125.736 27.3257Z" fill="white"/>
<path d="M129.373 22.0972C127.762 22.0972 126.458 23.3974 126.458 25.009C126.458 26.6166 127.762 27.9287 129.373 27.9287C130.102 27.9287 130.748 27.6607 131.245 27.2273C131.269 27.2037 131.32 27.1406 131.32 27.0579C131.32 27.0185 131.32 26.7466 131.32 26.5614C131.32 26.4787 131.268 26.4708 131.221 26.5299C130.804 27.0973 130.138 27.4677 129.373 27.4677C128.038 27.4677 126.95 26.3447 126.95 25.009C126.95 23.6732 128.038 22.5621 129.373 22.5621C130.138 22.5621 130.804 22.9246 131.221 23.4881C131.268 23.5511 131.32 23.5432 131.32 23.4487C131.32 23.2635 131.32 23.0034 131.32 22.9561C131.32 22.8773 131.269 22.8103 131.245 22.7946C130.764 22.3848 130.102 22.0972 129.373 22.0972Z" fill="white"/>
<path d="M134.929 27.3257H132.494C132.427 27.3257 132.411 27.3021 132.411 27.2351V25.2729C132.411 25.202 132.435 25.1862 132.51 25.1862H134.487C134.618 25.1862 134.728 25.0798 134.728 24.9498V24.934C134.728 24.8001 134.618 24.6937 134.487 24.6937H132.494C132.427 24.6937 132.411 24.67 132.411 24.5912V22.7709C132.411 22.7078 132.435 22.6842 132.51 22.6842H134.779C134.913 22.6842 135.019 22.5778 135.019 22.4478V22.432C135.019 22.298 134.913 22.1917 134.779 22.1917H132.147C132.017 22.1917 131.915 22.298 131.915 22.432V27.5897C131.915 27.7197 132.017 27.8301 132.147 27.8301H134.929C135.059 27.8301 135.165 27.7197 135.165 27.5897V27.5661C135.165 27.4361 135.059 27.3257 134.929 27.3257Z" fill="white"/>
<path d="M141.19 22.3374C141.15 22.2389 141.06 22.1917 140.957 22.1917C140.867 22.1917 140.764 22.2389 140.729 22.3374L138.566 27.4873C138.518 27.6055 138.574 27.7513 138.696 27.7986L138.711 27.8064C138.834 27.8616 138.975 27.7986 139.027 27.6803C139.027 27.6803 139.578 26.3761 139.614 26.2855C139.653 26.191 139.708 26.1594 139.799 26.1594C139.878 26.1594 141.6 26.1594 142.108 26.1594C142.202 26.1594 142.266 26.191 142.297 26.2619C142.325 26.3289 142.888 27.6803 142.888 27.6803C142.943 27.7986 143.081 27.8616 143.207 27.8064L143.223 27.7986C143.345 27.7513 143.408 27.6055 143.353 27.4873L141.19 22.3374ZM139.917 25.5566C139.941 25.5054 140.642 23.7283 140.882 23.2122C140.946 23.0782 140.973 23.0782 141.028 23.2122C141.245 23.7283 141.954 25.4581 141.994 25.5369C142.033 25.6275 142.017 25.659 141.911 25.659C141.808 25.659 140.441 25.659 140.008 25.659C139.925 25.659 139.894 25.6275 139.917 25.5566Z" fill="white"/>
<path d="M149.023 25.0169C149.023 23.4053 147.786 22.0972 146.178 22.0972C144.567 22.0972 143.262 23.4053 143.262 25.0169C143.262 26.0925 143.842 27.0342 144.712 27.5346C144.811 27.5977 144.835 27.6213 144.72 27.6804C144.606 27.7435 144.504 27.8144 144.421 27.8814C144.204 28.0626 144.413 28.4527 144.791 28.2084C145 28.0626 145.229 27.9444 145.5 27.9129C145.871 27.8735 146.21 27.9838 146.497 28.1848C146.521 28.2005 146.545 28.2163 146.564 28.2321C146.915 28.4488 147.329 28.5315 147.77 28.4842C148.164 28.4488 148.475 28.299 148.798 28.0547C149.047 27.8617 148.822 27.4598 148.436 27.7277C148.227 27.8735 147.987 27.9917 147.715 28.0232C147.471 28.0469 147.23 28.0075 147.014 27.9129C146.923 27.8735 146.923 27.838 147.014 27.8065C148.196 27.444 149.023 26.3289 149.023 25.0169ZM146.178 27.4677C144.835 27.4677 143.755 26.3526 143.755 25.0169C143.755 23.6732 144.835 22.5621 146.178 22.5621C147.514 22.5621 148.527 23.6732 148.527 25.0169C148.527 26.3526 147.514 27.4677 146.178 27.4677Z" fill="white"/>
<path d="M153.731 22.1917H153.708C153.578 22.1917 153.471 22.298 153.471 22.432V25.2256C153.471 26.5692 153.101 27.4676 151.864 27.4676C150.619 27.4676 150.173 26.5692 150.173 25.2256V22.432C150.173 22.298 150.071 22.1917 149.941 22.1917H149.917C149.787 22.1917 149.677 22.298 149.677 22.432V25.2256C149.677 26.8411 150.248 27.9286 151.864 27.9286C153.471 27.9286 153.972 26.8411 153.972 25.2256V22.432C153.972 22.298 153.865 22.1917 153.731 22.1917Z" fill="white"/>
<path d="M155 22.1917H154.984C154.851 22.1917 154.744 22.298 154.744 22.432V27.5897C154.744 27.7197 154.851 27.8301 154.984 27.8301H155C155.13 27.8301 155.237 27.7197 155.237 27.5897V22.432C155.237 22.298 155.13 22.1917 155 22.1917Z" fill="white"/>
<path d="M156.513 26.979H156.466C156.218 26.979 156.009 27.1721 156.009 27.4282V27.4676C156.009 27.7197 156.218 27.9286 156.466 27.9286H156.513C156.754 27.9286 156.963 27.7197 156.963 27.4676V27.4282C156.963 27.1721 156.754 26.979 156.513 26.979ZM156.498 22.1917H156.482C156.352 22.1917 156.242 22.298 156.242 22.432L156.226 26.2934C156.226 26.4234 156.336 26.5377 156.466 26.5377H156.513C156.643 26.5377 156.754 26.4234 156.754 26.2934L156.738 22.432C156.738 22.298 156.628 22.1917 156.498 22.1917Z" fill="white"/>
</svg>
